# xmcd
#
# Track frame offsets: 
#        150
#        17635
#        32717
#        44200
#        61435
#        76920
#        92282
#        107100
#        129520
#        140260
#        154737
#        171060
#
# Disc length: 2473 seconds
#
# Revision: 5
# Processed by: cddbd v1.5.2PL0 Copyright (c) Steve Scherf et al.
# Submitted via: ExactAudioCopy v0.95b3
#
DISCID=9509a70c
DTITLE=Eddie Rabbitt - From The Heart: The Last Recordings
DYEAR=1997
DGENRE=Country
TTITLE0=Great Old American Town
TTITLE1=It's Me I'm Runnin' From
TTITLE2=I'll Make Everything Alright
TTITLE3=You've Come To The Right Heart
TTITLE4=Love May Never Pass This Way Again
TTITLE5=I'm There
TTITLE6=Drivin' My Life Away
TTITLE7=Suspicions
TTITLE8=Two Dollars In The Jukebox
TTITLE9=I Love A Rainy Night
TTITLE10=On Second Thought
TTITLE11=American Boy
EXTD=
EXTT0=
EXTT1=
EXTT2=
EXTT3=
EXTT4=
EXTT5=
EXTT6=
EXTT7=
EXTT8=
EXTT9=
EXTT10=
EXTT11=
PLAYORDER=
